<svg width="20" height="21" viewBox="0 0 20 21" fill="none" xmlns="http://www.w3.org/2000/svg">
<g id="calendar-2-fill">
<path id="Vector" d="M14.1667 2.99992H17.5C17.9603 2.99992 18.3334 3.37302 18.3334 3.83325V17.1666C18.3334 17.6268 17.9603 17.9999 17.5 17.9999H2.50002C2.03979 17.9999 1.66669 17.6268 1.66669 17.1666V3.83325C1.66669 3.37302 2.03979 2.99992 2.50002 2.99992H5.83335V1.33325H7.50002V2.99992H12.5V1.33325H14.1667V2.99992ZM3.33335 7.99992V16.3333H16.6667V7.99992H3.33335ZM5.00002 9.66658H6.66669V11.3333H5.00002V9.66658ZM9.16669 9.66658H10.8334V11.3333H9.16669V9.66658ZM13.3334 9.66658H15V11.3333H13.3334V9.66658Z" fill="#838383"/>
</g>
</svg>
